DBRep_DrawableShape

CASCADE Topology V1, (c) Matra-Datavision
Locations 2
1
              1               0               0             100 
              0               1               0             100 
              0               0               1               0 
2  1 -1 0
Curve2ds 41
1 200 0 0 -1 
1 0 0 0 1 
8 -5.9999999999999997e-07 220
1 0 -100 1 0 
8 -5.9999999999999997e-07 220
1 3.1415926535897931 0 0 1 
1 0 0 0 -1 
1 0 0 0 1 
1 0 0 1 0 
1 0 0 1 0 
2 100 100 1 0 -0 1 100
1 0 200 1 0 
1 200 0 0 1 
1 0 0 1 0 
8 -5.9999999999999997e-07 220
1 0 100 1 0 
8 -5.9999999999999997e-07 220
1 4.7123889803846897 0 0 1 
1 0 0 1 0 
2 0 0 1 0 -0 1 100
2 100 100 1 0 -0 1 100
1 0 0 0 1 
1 0 0 1 0 
1 0 -200 1 0 
1 0 0 1 0 
1 200 0 0 1 
1 0 200 1 0 
1 0 0 0 1 
1 0 200 1 0 
8 -5.9999999999999997e-07 220
1 0 100 1 0 
8 -5.9999999999999997e-07 220
1 1.5707963267948966 0 0 1 
2 100 100 1 0 -0 1 100
1 0 -200 1 0 
1 0 200 1 0 
1 0 0 0 -1 
1 200 0 0 1 
2 100 100 1 0 -0 1 100
1 200 0 0 -1 
1 200 0 0 1 
1 6.2831853071795862 -0 0 1 
1 0 -0 0 1 
1 0 -99.999999999999972 1 0 
1 0 0 1 0 
1 0 200 1 0 
2 100 100 1 0 -0 1 100
Curves 18
1 0 0 200 -0 1 0 
1 0 100 0 0 0 1 
1 0 0 0 -0 1 0 
1 0 0 0 0 0 1 
2 100 100 200 0 0 1 1 0 -0 -0 1 0 100
1 0 0 200 1 0 -0 
1 100 0 0 0 0 1 
2 0 0 0 0 0 1 1 0 -0 -0 1 0 100
1 0 0 0 1 0 -0 
1 0 200 0 0 0 1 
1 0 200 200 1 0 -0 
1 0 200 0 1 0 -0 
1 100 200 0 0 0 1 
1 200 200 0 0 0 1 
1 200 0 0 -0 1 0 
1 200 0 200 -0 1 0 
1 100 -2.4492935982947064e-14 0 0 0 1 
1 200 0 0 0 0 1 
Polygon3D 0
PolygonOnTriangulations 80
2 1 2 
p 0.8000000008 1 0 100 
2 1 2 
p 0.8000000008 1 0 100 
2 12 3 
p 0.8000000008 1 0 200 
2 20 10 
p 0.8000000008 1 0 200 
2 4 2 
p 0.8000000008 1 0 200 
2 3 1 
p 0.8000000008 1 0 200 
2 3 4 
p 0.8000000008 1 0 99.9999999999999 
2 1 2 
p 0.8000000008 1 0 99.9999999999999 
2 1 2 
p 0.8000000008 1 0 200 
2 1 3 
p 0.8000000008 1 0 200 
2 3 1 
p 0.8000000008 1 0 200 
2 1 3 
p 0.8000000008 1 0 200 
10 3 4 5 6 7 8 9 10 11 2 
p 0.8000000008 1 3.14159265358979 3.31612557878923 3.49065850398866 3.66519142918809 3.83972435438752 4.01425727958696 4.18879020478639 4.36332312998582 4.53785605518526 4.71238898038469 
10 2 4 5 6 7 8 9 10 11 3 
p 0.8000000008 1 3.14159265358979 3.31612557878923 3.49065850398866 3.66519142918809 3.83972435438752 4.01425727958696 4.18879020478639 4.36332312998582 4.53785605518526 4.71238898038469 
2 1 3 
p 0.8000000008 1 0 100 
2 3 4 
p 0.8000000008 1 0 100 
2 1 2 
p 0.8000000008 1 0 200 
2 12 3 
p 0.8000000008 1 0 200 
2 2 4 
p 0.8000000008 1 0 200 
2 1 3 
p 0.8000000008 1 0 200 
10 12 13 14 15 16 17 18 19 20 1 
p 0.8000000008 1 3.14159265358979 3.31612557878922 3.49065850398865 3.66519142918808 3.83972435438751 4.01425727958694 4.18879020478637 4.3633231299858 4.53785605518523 4.71238898038466 
10 2 4 5 6 7 8 9 10 11 3 
p 0.8000000008 1 3.14159265358979 3.31612557878922 3.49065850398865 3.66519142918808 3.83972435438751 4.01425727958694 4.18879020478637 4.3633231299858 4.53785605518523 4.71238898038466 
2 1 3 
p 0.8000000008 1 0 99.9999999999972 
2 1 2 
p 0.8000000008 1 0 99.9999999999972 
2 1 2 
p 0.8000000008 1 100 200 
2 1 2 
p 0.8000000008 1 100 200 
2 3 4 
p 0.8000000008 1 0 200 
2 1 3 
p 0.8000000008 1 0 200 
2 4 2 
p 0.8000000008 1 0 200 
2 1 3 
p 0.8000000008 1 0 200 
2 3 4 
p 0.8000000008 1 99.9999999999999 200 
2 1 2 
p 0.8000000008 1 99.9999999999999 200 
2 2 3 
p 0.8000000008 1 0 100 
2 3 4 
p 0.8000000008 1 0 100 
10 1 2 3 4 5 6 7 8 9 10 
p 0.8000000008 1 1.5707963267949 1.74532925199433 1.91986217719376 2.0943951023932 2.26892802759263 2.44346095279206 2.61799387799149 2.79252680319093 2.96705972839036 3.14159265358979 
10 3 4 5 6 7 8 9 10 11 1 
p 0.8000000008 1 1.5707963267949 1.74532925199433 1.91986217719376 2.0943951023932 2.26892802759263 2.44346095279206 2.61799387799149 2.79252680319093 2.96705972839036 3.14159265358979 
2 1 2 
p 0.8000000008 1 0 99.9999999999836 
2 2 3 
p 0.8000000008 1 0 99.9999999999836 
2 11 1 
p 0.8000000008 1 0 200 
2 21 10 
p 0.8000000008 1 0 200 
2 2 4 
p 0.8000000008 1 0 200 
2 1 3 
p 0.8000000008 1 0 200 
10 11 12 13 14 15 16 17 18 19 20 
p 0.8000000008 1 1.57079632679506 1.74532925199448 1.91986217719389 2.0943951023933 2.26892802759272 2.44346095279213 2.61799387799155 2.79252680319096 2.96705972839038 3.14159265358979 
10 3 4 5 6 7 8 9 10 11 1 
p 0.8000000008 1 1.57079632679506 1.74532925199448 1.91986217719389 2.0943951023933 2.26892802759272 2.44346095279213 2.61799387799155 2.79252680319096 2.96705972839038 3.14159265358979 
2 1 2 
p 0.8000000008 1 99.9999999999836 200 
2 1 2 
p 0.8000000008 1 99.9999999999836 200 
2 3 4 
p 0.8000000008 1 0 200 
2 2 4 
p 0.8000000008 1 0 200 
2 2 4 
p 0.8000000008 1 0 200 
2 4 2 
p 0.8000000008 1 0 200 
2 3 4 
p 0.8000000008 1 100 200 
2 1 2 
p 0.8000000008 1 100 200 
2 3 2 
p 0.8000000008 1 100 200 
2 3 4 
p 0.8000000008 1 100 200 
11 11 12 13 14 15 16 17 18 19 20 21 
p 0.8000000008 1 0 0.157079632679506 0.314159265359012 0.471238898038518 0.628318530718024 0.785398163397531 0.942477796077037 1.09955742875654 1.25663706143605 1.41371669411556 1.57079632679506 
11 3 4 5 6 7 8 9 10 11 12 1 
p 0.8000000008 1 0 0.157079632679506 0.314159265359012 0.471238898038518 0.628318530718024 0.785398163397531 0.942477796077037 1.09955742875654 1.25663706143605 1.41371669411556 1.57079632679506 
2 1 2 
p 0.8000000008 1 100 200 
2 3 2 
p 0.8000000008 1 100 200 
2 11 1 
p 0.8000000008 1 0 200 
2 1 2 
p 0.8000000008 1 0 200 
2 3 1 
p 0.8000000008 1 0 200 
2 4 2 
p 0.8000000008 1 0 200 
10 1 2 3 4 5 6 7 8 9 10 
p 0.8000000008 1 0 0.174532925199433 0.349065850398866 0.523598775598299 0.698131700797732 0.872664625997165 1.0471975511966 1.22173047639603 1.39626340159546 1.5707963267949 
10 3 4 5 6 7 8 9 10 11 1 
p 0.8000000008 1 0 0.174532925199433 0.349065850398866 0.523598775598299 0.698131700797732 0.872664625997165 1.0471975511966 1.22173047639603 1.39626340159546 1.5707963267949 
2 1 2 
p 0.8000000008 1 99.9999999999972 200 
2 1 12 
p 0.8000000008 1 99.9999999999972 200 
2 1 2 
p 0.8000000008 1 0 200 
2 2 4 
p 0.8000000008 1 0 200 
2 2 4 
p 0.8000000008 1 0 200 
2 3 1 
p 0.8000000008 1 0 200 
2 3 4 
p 0.8000000008 1 100 200 
2 1 11 
p 0.8000000008 1 100 200 
11 12 13 14 15 16 17 18 19 20 21 1 
p 0.8000000008 1 4.71238898038466 4.86946861306415 5.02654824574365 5.18362787842314 5.34070751110263 5.49778714378212 5.65486677646162 5.81194640914111 5.9690260418206 6.12610567450009 6.28318530717959 
11 1 2 3 4 5 6 7 8 9 10 11 
p 0.8000000008 1 4.71238898038466 4.86946861306415 5.02654824574365 5.18362787842314 5.34070751110263 5.49778714378212 5.65486677646162 5.81194640914111 5.9690260418206 6.12610567450009 6.28318530717959 
2 12 11 
p 0.8000000008 1 0 100 
2 3 4 
p 0.8000000008 1 0 100 
2 1 2 
p 0.8000000008 1 0 100 
2 11 10 
p 0.8000000008 1 0 100 
10 3 4 5 6 7 8 9 10 11 2 
p 0.8000000008 1 4.71238898038469 4.88692190558412 5.06145483078356 5.23598775598299 5.41052068118242 5.58505360638185 5.75958653158129 5.93411945678072 6.10865238198015 6.28318530717959 
10 1 2 3 4 5 6 7 8 9 10 
p 0.8000000008 1 4.71238898038469 4.88692190558412 5.06145483078356 5.23598775598299 5.41052068118242 5.58505360638185 5.75958653158129 5.93411945678072 6.10865238198015 6.28318530717959 
Surfaces 8
1 0 0 0 1 0 -0 0 0 1 0 -1 0 
1 0 0 200 0 0 1 1 0 -0 -0 1 0 
2 0 0 0 0 0 1 1 0 -0 -0 1 0 100
1 0 0 0 0 0 1 1 0 -0 -0 1 0 
1 0 0 0 -0 1 0 0 0 1 1 0 -0 
1 0 0 0 0 0 1 1 0 -0 -0 1 0 
1 0 200 0 -0 1 0 0 0 1 1 0 -0 
1 200 0 0 1 0 -0 0 0 1 0 -1 0 
Triangulations 24
4 2 1 3.5527136788005e-14
0 0 200 0 100 200 0 0 0 0 99.9999999999999 0 200 0 200 -100 0 0 0 -100 1 3 4 1 4 2 
11 9 1 1.4210854715202e-14
0 0 200 0 100 200 100 0 200 1.51922469877918 82.635182233307 200 6.03073792140914 65.7979856674332 200 13.3974596215561 50.0000000000001 200 23.3955556881021 35.7212390313461 200 35.721239031346 23.3955556881023 200 49.9999999999999 13.3974596215562 200 65.797985667433 6.03073792140921 200 82.6351822333068 1.51922469877923 200 0 0 0 100 100 0 1.51922469877918 82.635182233307 6.03073792140914 65.7979856674332 13.3974596215561 50.0000000000001 23.3955556881021 35.7212390313461 35.721239031346 23.3955556881023 49.9999999999999 13.3974596215562 65.797985667433 6.03073792140921 82.6351822333068 1.51922469877923 7 1 8 9 8 1 6 1 7 10 9 1 5 1 6 11 10 1 4 1 5 2 1 4 1 3 11 
20 18 1 0.380530190825427
99.9999999999972 0 0 100 0 200 0 100 200 1.51922469877918 82.635182233307 200 6.03073792140914 65.7979856674332 200 13.3974596215561 50.0000000000001 200 23.3955556881021 35.7212390313461 200 35.721239031346 23.3955556881023 200 49.9999999999999 13.3974596215562 200 65.797985667433 6.03073792140921 200 82.6351822333068 1.51922469877923 200 0 99.9999999999999 0 1.51922469877914 82.6351822333073 0 6.03073792140896 65.7979856674337 0 13.3974596215557 50.0000000000008 0 23.3955556881015 35.721239031347 0 35.721239031345 23.3955556881031 0 49.9999999999985 13.397459621557 0 65.7979856674312 6.03073792140985 0 82.6351822333047 1.5192246987796 0 4.71238898038466 0 4.71238898038469 200 3.14159265358979 200 3.31612557878923 200 3.49065850398866 200 3.66519142918809 200 3.83972435438752 200 4.01425727958696 200 4.18879020478639 200 4.36332312998582 200 4.53785605518526 200 3.14159265358979 0 3.31612557878922 0 3.49065850398865 0 3.66519142918808 0 3.83972435438751 0 4.01425727958694 0 4.18879020478637 0 4.3633231299858 0 4.53785605518523 0 3 12 13 4 13 14 4 3 13 5 14 15 5 4 14 6 15 16 6 5 15 7 16 17 7 6 16 8 17 18 8 7 17 9 18 19 9 8 18 10 19 20 10 9 19 11 20 1 11 10 20 2 11 1 
20 18 1 0.380530190825369
100 200 200 82.635182233307 198.480775301221 200 65.7979856674331 193.969262078591 200 50 186.602540378444 200 35.7212390313461 176.604444311898 200 23.3955556881022 164.278760968654 200 13.3974596215562 150 200 6.0307379214092 134.202014332567 200 1.51922469877923 117.364817766693 200 0 100 200 99.9999999999836 200 0 82.6351822332926 198.480775301218 0 65.7979856674211 193.969262078586 0 49.9999999999905 186.602540378438 0 35.7212390313391 176.604444311892 0 23.3955556880975 164.278760968648 0 13.3974596215534 149.999999999995 0 6.03073792140793 134.202014332564 0 1.51922469877888 117.364817766691 0 0 99.9999999999999 0 1.5707963267949 200 1.74532925199433 200 1.91986217719376 200 2.0943951023932 200 2.26892802759263 200 2.44346095279206 200 2.61799387799149 200 2.79252680319093 200 2.96705972839036 200 3.14159265358979 200 1.57079632679506 0 1.74532925199448 0 1.91986217719389 0 2.0943951023933 0 2.26892802759272 0 2.44346095279213 0 2.61799387799155 0 2.79252680319096 0 2.96705972839038 0 3.14159265358979 0 2 1 11 2 11 12 3 12 13 3 2 12 4 13 14 4 3 13 5 14 15 5 4 14 6 15 16 6 5 15 7 16 17 7 6 16 8 17 18 8 7 17 9 18 19 9 8 18 10 19 20 10 9 19 
4 2 1 0
0 100 200 0 200 200 0 99.9999999999999 0 0 200 0 200 -100 200 -200 0 -99.9999999999999 0 -200 1 3 4 1 4 2 
11 9 1 2.1316282072803e-14
0 0 0 0 99.9999999999999 0 99.9999999999972 0 0 1.51922469877914 82.6351822333073 0 6.03073792140896 65.7979856674337 0 13.3974596215557 50.0000000000008 0 23.3955556881015 35.721239031347 0 35.721239031345 23.3955556881031 0 49.9999999999985 13.397459621557 0 65.7979856674312 6.03073792140985 0 82.6351822333047 1.5192246987796 0 0 0 0 100 99.9999999999972 0 1.51922469877914 82.6351822333073 6.03073792140896 65.7979856674337 13.3974596215557 50.0000000000008 23.3955556881015 35.721239031347 35.721239031345 23.3955556881031 49.9999999999985 13.397459621557 65.7979856674312 6.03073792140985 82.6351822333047 1.5192246987796 7 1 8 9 8 1 6 1 7 10 9 1 5 1 6 11 10 1 4 1 5 2 1 4 1 3 11 
4 2 1 0
0 0 0 0 0 200 0 200 0 0 200 200 0 0 200 0 0 -200 200 -200 2 1 3 2 3 4 
4 2 1 0
0 0 0 200 0 0 0 0 200 200 0 200 0 0 0 200 200 0 200 200 4 2 1 4 1 3 
4 2 1 9.37916411203332e-13
0 0 0 99.9999999999972 0 0 0 0 200 100 0 200 0 0 0 100 200 0 200 100 4 2 1 4 1 3 
21 19 1 0.30826662668722
200 100 0 200 100 200 100 0 200 117.364817766693 1.51922469877918 200 134.202014332567 6.03073792140914 200 150 13.3974596215561 200 164.278760968654 23.3955556881021 200 176.604444311898 35.721239031346 200 186.602540378444 49.9999999999999 200 193.969262078591 65.797985667433 200 198.480775301221 82.6351822333068 200 99.9999999999972 0 0 115.643446504021 1.23116594048584 0 130.901699437493 4.89434837048395 0 145.399049973953 10.8993475811623 0 158.778525229246 19.0983005625042 0 170.710678118654 29.2893218813442 0 180.901699437494 41.2214747707517 0 189.100652418836 54.6009500260445 0 195.105651629515 69.0983005625046 0 198.768834059514 84.3565534959765 0 6.28318530717959 0 6.28318530717959 200 4.71238898038469 200 4.88692190558412 200 5.06145483078356 200 5.23598775598299 200 5.41052068118242 200 5.58505360638185 200 5.75958653158129 200 5.93411945678072 200 6.10865238198015 200 4.71238898038466 0 4.86946861306415 0 5.02654824574365 0 5.18362787842314 0 5.34070751110263 0 5.49778714378212 0 5.65486677646162 0 5.81194640914111 0 5.9690260418206 0 6.12610567450009 0 3 12 13 4 13 14 4 3 13 5 14 15 5 4 14 6 15 16 6 5 15 7 16 17 7 6 16 8 17 18 8 7 17 9 18 19 9 8 18 10 19 20 10 9 19 11 20 21 11 10 20 2 21 1 2 11 21 
4 2 1 1.3926637620898e-12
99.9999999999972 0 0 200 0 0 100 0 200 200 0 200 0 100 0 200 200 100 200 200 4 2 1 4 1 3 
11 9 1 0
0 100 200 0 200 200 100 200 200 82.635182233307 198.480775301221 200 65.7979856674331 193.969262078591 200 50 186.602540378444 200 35.7212390313461 176.604444311898 200 23.3955556881022 164.278760968654 200 13.3974596215562 150 200 6.0307379214092 134.202014332567 200 1.51922469877923 117.364817766693 200 0 100 0 200 100 200 82.635182233307 198.480775301221 65.7979856674331 193.969262078591 50 186.602540378444 35.7212390313461 176.604444311898 23.3955556881022 164.278760968654 13.3974596215562 150 6.0307379214092 134.202014332567 1.51922469877923 117.364817766693 2 9 8 2 10 9 2 11 10 7 2 8 6 2 7 5 2 6 2 1 11 3 2 4 4 2 5 
4 2 1 0
0 200 0 200 200 0 0 200 200 200 200 200 0 0 0 200 200 0 200 200 4 2 1 4 1 3 
4 2 1 5.48538992006797e-12
0 200 0 99.9999999999836 200 0 0 200 200 100 200 200 0 0 0 100 200 0 200 100 4 2 1 4 1 3 
11 9 1 0
0 99.9999999999999 0 0 200 0 99.9999999999836 200 0 82.6351822332926 198.480775301218 0 65.7979856674211 193.969262078586 0 49.9999999999905 186.602540378438 0 35.7212390313391 176.604444311892 0 23.3955556880975 164.278760968648 0 13.3974596215534 149.999999999995 0 6.03073792140793 134.202014332564 0 1.51922469877888 117.364817766691 0 0 100 0 200 99.9999999999836 200 82.6351822332926 198.480775301218 65.7979856674211 193.969262078586 49.9999999999905 186.602540378438 35.7212390313391 176.604444311892 23.3955556880975 164.278760968648 13.3974596215534 149.999999999995 6.03073792140793 134.202014332564 1.51922469877888 117.364817766691 2 9 8 2 10 9 2 11 10 7 2 8 6 2 7 5 2 6 2 1 11 3 2 4 4 2 5 
21 19 1 0.308266626687275
200 100 200 198.480775301221 117.364817766693 200 193.969262078591 134.202014332567 200 186.602540378444 150 200 176.604444311898 164.278760968654 200 164.278760968654 176.604444311898 200 150 186.602540378444 200 134.202014332567 193.969262078591 200 117.364817766693 198.480775301221 200 100 200 200 200 100 0 198.768834059513 115.643446504025 0 195.105651629514 130.901699437498 0 189.100652418835 145.399049973959 0 180.901699437491 158.778525229253 0 170.710678118649 170.710678118661 0 158.778525229239 180.901699437501 0 145.399049973944 189.100652418842 0 130.901699437482 195.105651629519 0 115.643446504008 198.768834059516 0 99.9999999999836 200 0 0 200 0.174532925199433 200 0.349065850398866 200 0.523598775598299 200 0.698131700797732 200 0.872664625997165 200 1.0471975511966 200 1.22173047639603 200 1.39626340159546 200 1.5707963267949 200 0 0 0.157079632679506 0 0.314159265359012 0 0.471238898038518 0 0.628318530718024 0 0.785398163397531 0 0.942477796077037 0 1.09955742875654 0 1.25663706143605 0 1.41371669411556 0 1.5707963267949 0 1 11 12 2 12 13 2 1 12 3 13 14 3 2 13 4 14 15 4 3 14 5 15 16 5 4 15 6 16 17 6 5 16 7 17 18 7 6 17 8 18 19 8 7 18 9 19 20 9 8 19 10 20 21 10 9 20 
4 2 1 8.21387402538676e-12
99.9999999999836 200 0 200 200 0 100 200 200 200 200 200 0 100 0 200 200 100 200 200 4 2 1 4 1 3 
12 10 1 0
99.9999999999836 200 0 200 200 0 200 100 0 198.768834059513 115.643446504025 0 195.105651629514 130.901699437498 0 189.100652418835 145.399049973959 0 180.901699437491 158.778525229253 0 170.710678118649 170.710678118661 0 158.778525229239 180.901699437501 0 145.399049973944 189.100652418842 0 130.901699437482 195.105651629519 0 115.643446504008 198.768834059516 0 99.9999999999836 200 200 200 200 100 198.768834059513 115.643446504025 195.105651629514 130.901699437498 189.100652418835 145.399049973959 180.901699437491 158.778525229253 170.710678118649 170.710678118661 158.778525229239 180.901699437501 145.399049973944 189.100652418842 130.901699437482 195.105651629519 115.643446504008 198.768834059516 2 5 4 2 6 5 2 7 6 2 8 7 2 9 8 2 10 9 2 1 12 2 12 11 2 11 10 3 2 4 
4 2 1 0
200 0 0 200 0 200 200 200 0 200 200 200 0 0 200 0 0 -200 200 -200 2 1 3 2 3 4 
4 2 1 0
200 100 200 200 200 200 200 100 0 200 200 0 200 -100 200 -200 0 -100 0 -200 1 3 4 1 4 2 
11 9 1 0
100 200 200 200 200 200 200 100 200 198.480775301221 117.364817766693 200 193.969262078591 134.202014332567 200 186.602540378444 150 200 176.604444311898 164.278760968654 200 164.278760968654 176.604444311898 200 150 186.602540378444 200 134.202014332567 193.969262078591 200 117.364817766693 198.480775301221 200 100 200 200 200 200 100 198.480775301221 117.364817766693 193.969262078591 134.202014332567 186.602540378444 150 176.604444311898 164.278760968654 164.278760968654 176.604444311898 150 186.602540378444 134.202014332567 193.969262078591 117.364817766693 198.480775301221 2 5 4 2 6 5 2 7 6 2 8 7 2 9 8 2 10 9 2 1 11 2 11 10 3 2 4 
4 2 1 0
200 0 200 200 100 200 200 0 0 200 100 0 200 0 200 -100 0 0 0 -100 1 3 4 1 4 2 
12 10 1 0
99.9999999999972 0 0 115.643446504021 1.23116594048584 0 130.901699437493 4.89434837048395 0 145.399049973953 10.8993475811623 0 158.778525229246 19.0983005625042 0 170.710678118654 29.2893218813442 0 180.901699437494 41.2214747707517 0 189.100652418836 54.6009500260445 0 195.105651629515 69.0983005625046 0 198.768834059514 84.3565534959765 0 200 100 0 200 0 0 99.9999999999972 0 115.643446504021 1.23116594048584 130.901699437493 4.89434837048395 145.399049973953 10.8993475811623 158.778525229246 19.0983005625042 170.710678118654 29.2893218813442 180.901699437494 41.2214747707517 189.100652418836 54.6009500260445 195.105651629515 69.0983005625046 198.768834059514 84.3565534959765 200 100 200 0 12 3 2 12 4 3 12 5 4 12 6 5 7 6 12 8 7 12 9 8 12 10 9 12 1 12 2 12 11 10 
11 9 1 0
100 0 200 117.364817766693 1.51922469877918 200 134.202014332567 6.03073792140914 200 150 13.3974596215561 200 164.278760968654 23.3955556881021 200 176.604444311898 35.721239031346 200 186.602540378444 49.9999999999999 200 193.969262078591 65.797985667433 200 198.480775301221 82.6351822333068 200 200 100 200 200 0 200 100 0 117.364817766693 1.51922469877918 134.202014332567 6.03073792140914 150 13.3974596215561 164.278760968654 23.3955556881021 176.604444311898 35.721239031346 186.602540378444 49.9999999999999 193.969262078591 65.797985667433 198.480775301221 82.6351822333068 200 100 200 0 11 3 2 11 4 3 11 5 4 6 5 11 7 6 11 8 7 11 9 8 11 1 11 2 11 10 9 

TShapes 97
Ve
1e-07
0 0 200
0 0

0101101
*
Ve
1.00000014210855e-07
0 100 200
0 0

0101101
*
Ed
 1e-07 1 1 0
1  1 0 0 100
2  1 1 0 0 100
2  2 2 0 0 100
6  1 1 0
6  2 2 0
0

0101000
+97 0 -96 0 *
Ve
1.00000085265128e-07
0 99.9999999999999 0
0 0

0101101
*
Ed
 1e-07 1 1 0
1  2 0 0 200
2  3 1 0 0 200
2  4 3 1 0 200
6  3 3 0
6  4 4 0
6  5 1 0
6  6 5 0
0

0101000
+94 0 -96 0 *
Ve
1e-07
0 0 0
0 0

0101101
*
Ed
 1e-07 1 1 0
1  3 0 0 99.9999999999999
2  5 1 0 0 99.9999999999999
2  6 4 0 0 99.9999999999999
6  7 1 0
6  8 6 0
0

0101000
+92 0 -94 0 *
Ed
 1e-07 1 1 0
1  4 0 0 200
2  7 1 0 0 200
2  8 5 0 0 200
6  9 7 0
6  10 8 0
6  11 1 0
6  12 9 0
0

0101000
-97 0 +92 0 *
Wi

0101100
-95 0 +93 0 +91 0 -90 0 *
Fa
0  1e-07 1 0
2  1
0101000
+89 0 *
Ve
1.00000014210855e-07
100 0 200
0 0

0101101
*
Ed
 1e-07 1 1 0
1  5 0 3.14159265358979 4.71238898038469
2  9 2 0 3.14159265358979 4.71238898038469
2  10 3 1 3.14159265358979 4.71238898038469
6  13 3 0
6  14 2 0
0

0101000
+96 0 -87 0 *
Ed
 1e-07 1 1 0
1  6 0 0 100
2  11 5 0 0 100
2  12 2 0 0 100
6  15 2 0
6  16 9 0
0

0101000
+97 0 -87 0 *
Wi

0101100
-95 0 -86 0 +85 0 *
Fa
0  1e-07 2 0
2  2
0101000
+84 0 *
Ve
1.00002771116669e-07
99.9999999999972 0 0
0 0

0101101
*
Ed
 1e-07 1 1 0
1  7 0 0 200
2  13 5 0 0 200
2  14 3 1 0 200
6  17 3 0
6  18 10 0
6  19 9 0
6  20 11 0
0

0101000
+82 0 -87 0 *
Ed
 1e-07 1 1 0
1  8 0 3.14159265358979 4.71238898038466
2  15 3 0 3.14159265358979 4.71238898038466
2  16 6 0 3.14159265358979 4.71238898038466
2  17 4 2 3.14159265358979 4.71238898038466
6  21 3 2
6  22 6 2
0

0101000
+94 2 -82 2 *
Wi

0101100
+81 0 +80 1 -93 0 -86 0 *
Fa
0  1e-07 3 1
2  3
0101000
+79 0 *
Ed
 1e-07 1 1 0
1  9 0 0 99.9999999999972
2  18 5 0 0 99.9999999999972
2  19 4 0 0 99.9999999999972
6  23 6 0
6  24 9 0
0

0101000
+92 0 -82 0 *
Wi

0101100
-91 0 -80 1 +77 0 *
Fa
0  1e-07 4 0
2  6
0101000
+76 0 *
Wi

0101100
-77 0 -81 0 +85 0 +90 0 *
Fa
0  1e-07 5 0
2  9
0101000
+74 0 *
Sh

0101100
-88 0 +83 0 -78 0 -75 0 -73 0 *
So

0100000
+72 0 *
Ve
1e-07
0 200 200
0 0

0101101
*
Ed
 1e-07 1 1 0
1  1 0 100 200
2  1 1 0 100 200
2  2 2 0 100 200
6  25 5 0
6  26 12 0
0

0101000
+96 0 -70 0 *
Ve
1e-07
0 200 0
0 0

0101101
*
Ed
 1e-07 1 1 0
1  10 0 0 200
2  20 1 0 0 200
2  21 7 0 0 200
6  27 7 0
6  28 13 0
6  29 5 0
6  30 14 0
0

0101000
-70 0 +68 0 *
Ed
 1e-07 1 1 0
1  3 0 99.9999999999999 200
2  5 1 0 99.9999999999999 200
2  6 4 0 99.9999999999999 200
6  31 5 0
6  32 15 0
0

0101000
+94 0 -68 0 *
Wi

0101100
-69 0 +67 0 +66 0 -93 0 *
Fa
0  1e-07 1 0
2  5
0101000
+65 0 *
Ve
1e-07
100 200 200
0 0

0101101
*
Ed
 1e-07 1 1 0
1  11 0 0 100
2  22 7 0 0 100
2  23 2 0 0 100
6  33 12 0
6  34 14 0
0

0101000
+70 0 -63 0 *
Ed
 1e-07 1 1 0
1  5 0 1.5707963267949 3.14159265358979
2  9 2 0 1.5707963267949 3.14159265358979
2  10 3 1 1.5707963267949 3.14159265358979
6  35 4 0
6  36 12 0
0

0101000
+63 0 -96 0 *
Wi

0101100
-69 0 -62 0 -61 0 *
Fa
0  1e-07 2 0
2  12
0101000
+60 0 *
Ve
1.00016441958905e-07
99.9999999999836 200 0
0 0

0101101
*
Ed
 1e-07 1 1 0
1  12 0 0 99.9999999999836
2  24 7 0 0 99.9999999999836
2  25 4 0 0 99.9999999999836
6  37 14 0
6  38 15 0
0

0101000
+68 0 -58 0 *
Ed
 1e-07 1 1 0
1  13 0 0 200
2  26 7 0 0 200
2  27 3 1 0 200
6  39 4 0
6  40 16 0
6  41 14 0
6  42 17 0
0

0101000
+58 0 -63 0 *
Wi

0101100
-57 0 -56 0 +62 0 +67 0 *
Fa
0  1e-07 7 0
2  14
0101000
+55 0 *
Ed
 1e-07 1 1 0
1  8 0 1.57079632679506 3.14159265358979
2  15 3 0 1.57079632679506 3.14159265358979
2  16 6 0 1.57079632679506 3.14159265358979
2  28 4 2 1.57079632679506 3.14159265358979
6  43 4 2
6  44 15 2
0

0101000
+58 2 -94 2 *
Wi

0101100
-66 0 -57 0 -53 1 *
Fa
0  1e-07 4 0
2  15
0101000
+52 0 *
Wi

0101100
-61 0 +93 0 +53 1 -56 0 *
Fa
0  1e-07 3 1
2  4
0101000
+50 0 *
Sh

0101100
-64 0 +59 0 +54 0 -51 0 -49 0 *
So

0100000
+48 0 *
Ve
1e-07
200 200 0
0 0

0101101
*
Ed
 1e-07 1 1 0
1  12 0 99.9999999999836 200
2  24 7 0 99.9999999999836 200
2  25 4 0 99.9999999999836 200
6  45 17 0
6  46 18 0
0

0101000
+58 0 -46 0 *
Ve
1e-07
200 200 200
0 0

0101101
*
Ed
 1e-07 1 1 0
1  14 0 0 200
2  29 8 0 0 200
2  30 7 0 0 200
6  47 19 0
6  48 13 0
6  49 17 0
6  50 20 0
0

0101000
-44 0 +46 0 *
Ed
 1e-07 1 1 0
1  11 0 100 200
2  22 7 0 100 200
2  23 2 0 100 200
6  51 17 0
6  52 21 0
0

0101000
+63 0 -44 0 *
Wi

0101100
-45 0 -43 0 +42 0 +56 0 *
Fa
0  1e-07 7 0
2  17
0101000
+41 0 *
Ve
1.00000022484892e-07
100 -2.44929359829471e-14 0
0 0

0101101
*
Ed
 1e-07 1 1 0
1  15 0 100 200
2  31 8 0 100 200
2  32 4 0 100 200
6  53 18 0
6  54 20 0
0

0101000
+39 1 -46 0 *
Ed
 1e-07 1 1 0
1  8 0 0 1.57079632679506
2  15 3 0 0 1.57079632679506
2  16 6 0 0 1.57079632679506
2  33 4 2 0 1.57079632679506
6  55 16 2
6  56 18 2
0

0101000
+39 0 -58 2 *
Wi

0101100
-45 0 +38 0 -37 1 *
Fa
0  1e-07 4 0
2  18
0101000
+36 0 *
Ve
1.00000028421709e-07
200 100 200
0 0

0101101
*
Ed
 1e-07 1 1 0
1  16 0 100 200
2  34 8 0 100 200
2  35 2 0 100 200
6  57 20 0
6  58 21 0
0

0101000
+34 0 -44 0 *
Ed
 1e-07 1 1 0
1  17 0 0 200
3  36 37CN 3 0 0 200
2  38 8 2 0 200
6  59 16 2
6  60 10 2
6  61 20 2
6  62 22 2
0

0101000
+39 0 -34 2 *
Wi

0101100
-33 0 +43 0 +38 0 -32 1 *
Fa
0  1e-07 8 0
2  20
0101000
+31 0 *
Ed
 1e-07 1 1 0
1  5 0 0 1.5707963267949
2  9 2 0 0 1.5707963267949
2  10 3 1 0 1.5707963267949
6  63 16 0
6  64 21 0
0

0101000
+34 0 -63 0 *
Wi

0101100
-42 0 +33 0 -29 0 *
Fa
0  1e-07 2 0
2  21
0101000
+28 0 *
Wi

0101100
-29 0 +56 0 +37 1 -32 1 *
Fa
0  1e-07 3 1
2  16
0101000
+26 0 *
Sh

0101100
+40 0 -35 0 +30 0 +27 0 -25 0 *
So

0100000
+24 0 *
Ve
1e-07
200 0 0
0 0

0101101
*
Ed
 1e-07 1 1 0
1  9 0 99.9999999999972 200
2  18 5 0 99.9999999999972 200
2  19 4 0 99.9999999999972 200
6  65 11 0
6  66 23 0
0

0101000
+82 0 -22 0 *
Ve
1e-07
200 0 200
0 0

0101101
*
Ed
 1e-07 1 1 0
1  18 0 0 200
2  39 8 0 0 200
2  40 5 0 0 200
6  67 19 0
6  68 8 0
6  69 11 0
6  70 22 0
0

0101000
-20 0 +22 0 *
Ed
 1e-07 1 1 0
1  6 0 100 200
2  11 5 0 100 200
2  12 2 0 100 200
6  71 11 0
6  72 24 0
0

0101000
+87 0 -20 0 *
Wi

0101100
-21 0 -19 0 +18 0 +81 0 *
Fa
0  1e-07 5 0
2  11
0101000
+17 0 *
Ed
 1e-07 1 1 0
1  8 0 4.71238898038466 6.28318530717959
2  15 3 0 4.71238898038466 6.28318530717959
2  16 6 0 4.71238898038466 6.28318530717959
2  41 4 2 4.71238898038466 6.28318530717959
6  73 10 2
6  74 23 2
0

0101000
+82 2 -39 0 *
Ed
 1e-07 1 1 0
1  15 0 0 100
2  31 8 0 0 100
2  32 4 0 0 100
6  75 23 0
6  76 22 0
0

0101000
+22 0 -39 1 *
Wi

0101100
-15 1 +14 0 +21 0 *
Fa
0  1e-07 4 0
2  23
0101000
+13 0 *
Ed
 1e-07 1 1 0
1  16 0 0 100
2  34 8 0 0 100
2  35 2 0 0 100
6  77 22 0
6  78 24 0
0

0101000
+20 0 -34 0 *
Wi

0101100
-11 0 +32 1 +14 0 -19 0 *
Fa
0  1e-07 8 0
2  22
0101000
+10 0 *
Ed
 1e-07 1 1 0
1  5 0 4.71238898038469 6.28318530717959
2  9 2 0 4.71238898038469 6.28318530717959
2  10 3 1 4.71238898038469 6.28318530717959
6  79 10 0
6  80 24 0
0

0101000
+87 0 -34 0 *
Wi

0101100
-8 0 +11 0 +18 0 *
Fa
0  1e-07 2 0
2  24
0101000
+7 0 *
Wi

0101100
+32 1 +15 1 -81 0 -8 0 *
Fa
0  1e-07 3 1
2  10
0101000
+5 0 *
Sh

0101100
-16 0 -12 0 +9 0 +6 0 -4 0 *
So

0100000
+3 0 *
Co

1100000
+71 0 +47 0 +23 0 +2 0 *

+1 0 